<svg width="603" height="800" viewBox="0 0 603 800" fill="none" xmlns="http://www.w3.org/2000/svg">
<path d="M346.289 635.037C346.958 634.939 347.612 634.825 348.269 634.721C348.752 634.687 349.247 634.629 349.708 634.629L349.753 634.473C492.859 611.203 602.15 487.051 602.15 337.348C602.15 188.281 549.65 102.415 494.4 -0.00195312H453.234C460.034 12.8434 466.856 25.3387 473.484 37.5574C514.675 113.264 551.159 180.411 562.33 275.431C543.541 272.732 521.842 271.098 495.736 271.098C394.141 271.098 359.222 295.664 303.455 312.542C266.142 298.832 227.494 285.612 152.95 285.612C100.858 285.612 66.3125 292.073 37.4859 300.639C44.7156 191.917 83.9281 119.789 128.639 37.5574C135.3 25.3402 142.1 12.8449 148.911 -0.000390625H107.767C52.4656 102.415 0 188.282 0 337.35C0 487.054 109.275 611.206 252.392 634.475L252.416 634.631C252.909 634.631 253.381 634.689 253.877 634.723C254.52 634.826 255.187 634.94 255.855 635.039C265.634 637.214 271.709 645.981 271.709 656.468V727.895C271.709 739.573 263.841 752.339 252.416 752.339L202.239 762.717C192.562 762.717 184.681 770.396 184.681 779.859V782.856C184.681 792.325 192.562 800 202.239 800H298.644H303.511H399.881C409.592 800 417.45 792.325 417.45 782.856V779.859C417.45 770.396 409.592 762.717 399.881 762.717L349.705 752.339C338.302 752.339 330.433 739.573 330.433 727.895V656.468C330.434 645.981 336.498 637.212 346.289 635.037Z" fill="white"/>
<path d="M417.452 782.856V779.859C417.452 770.397 409.594 762.717 399.883 762.717L349.706 752.339C338.303 752.339 330.435 739.573 330.435 727.895V656.469C330.435 645.981 336.499 637.214 346.289 635.039C346.958 634.941 347.613 634.827 348.269 634.723C348.752 634.689 349.247 634.631 349.708 634.631L349.753 634.475C492.86 611.205 602.15 487.053 602.15 337.35C602.15 188.283 549.65 102.417 494.4 0H453.235C460.035 12.8453 466.856 25.3406 473.485 37.5594C514.675 113.266 551.16 180.412 562.33 275.433C543.541 272.734 521.842 271.1 495.736 271.1C394.153 271.1 359.235 295.653 303.513 312.525V800H399.883C409.594 800 417.452 792.325 417.452 782.856Z" fill="#E6EDEF"/>
<path d="M37.4861 300.64C37.4502 301.022 37.4158 301.406 37.3877 301.797C74.1939 315.281 112.772 328.104 186.189 328.104C239.367 328.104 274.264 321.373 303.453 312.543C266.141 298.834 227.492 285.614 152.949 285.614C100.858 285.614 66.3143 292.075 37.4861 300.64Z" fill="#772045"/>
<path opacity="0.37" d="M562.33 275.431C551.158 180.411 514.673 113.265 473.484 37.5574C466.858 25.3387 460.034 12.8434 453.234 -0.00195312H148.911C142.1 12.8434 135.3 25.3387 128.638 37.5574C83.9266 119.789 44.7156 191.917 37.4844 300.639C66.3125 292.073 100.856 285.612 152.948 285.612C227.492 285.612 266.141 298.832 303.453 312.542C359.22 295.664 394.139 271.098 495.734 271.098C521.842 271.1 543.541 272.734 562.33 275.431Z" fill="white"/>
<path d="M335.589 357.161C337.73 371.411 327.88 384.666 313.625 386.787L189.836 405.169C175.603 407.286 162.327 397.459 160.231 383.222L140.869 252.972C138.763 238.723 148.6 225.462 162.833 223.351L286.633 204.953C300.877 202.831 314.144 212.662 316.249 226.912L335.589 357.161Z" fill="#F5F6F6"/>
<path d="M495.736 271.1C340.975 271.1 340.975 328.104 186.191 328.104C112.774 328.104 74.1957 315.281 37.3895 301.796C36.6582 313.221 36.2676 325.061 36.2676 337.35C36.2676 483.354 155.057 602.139 301.05 602.139C447.091 602.139 565.863 483.354 565.863 337.35C565.863 315.328 564.597 294.807 562.33 275.432C543.541 272.734 521.843 271.1 495.736 271.1Z" fill="#D52875"/>
<path opacity="0.55" d="M151.88 327.056L160.233 383.22C162.328 397.458 175.605 407.284 189.838 405.167L313.627 386.786C327.881 384.664 337.731 371.409 335.591 357.159L327.756 304.411C293.031 316.889 254.824 328.101 186.192 328.101C173.81 328.104 162.453 327.729 151.88 327.056Z" fill="#C01B3D"/>
<path d="M481.666 254.802C485.324 240.869 476.995 226.613 463.073 222.97L342.01 191.22C328.066 187.563 313.834 195.897 310.176 209.813L281.699 318.369C347.696 303.003 378.14 274.544 477.329 271.397L481.666 254.802Z" fill="white"/>
<path d="M295.377 369.023L416.439 400.773C430.372 404.437 444.616 396.096 448.275 382.162L477.327 271.398C378.138 274.545 347.694 303.004 281.697 318.37L276.772 337.182C273.114 351.115 281.433 365.37 295.377 369.023Z" fill="#E07888"/>
<path opacity="0.32" d="M178.631 6.34375H240.311L142.388 158.691L178.631 6.34375Z" fill="white"/>
<path opacity="0.55" d="M210.052 558.061C237.896 570.434 268.708 577.32 301.05 577.32C421.72 577.32 520.497 481.904 525.892 362.568L210.052 558.061Z" fill="#C01B3D"/>
<path opacity="0.55" d="M210.052 558.061C237.896 570.434 268.708 577.32 301.05 577.32C421.72 577.32 520.497 481.904 525.892 362.568L210.052 558.061Z" fill="#C01B3D"/>
</svg>
