<svg width="603" height="800" viewBox="0 0 603 800" fill="none" xmlns="http://www.w3.org/2000/svg">
<path d="M346.289 635.038C346.958 634.939 347.612 634.825 348.269 634.722C348.752 634.688 349.247 634.63 349.708 634.63L349.753 634.474C492.861 611.203 602.15 487.052 602.15 337.349C602.15 188.281 549.65 102.416 494.4 -0.00146484H453.234C460.034 12.8438 466.856 25.3392 473.484 37.5579C514.675 113.264 551.159 180.411 562.33 275.431C543.541 272.733 521.842 271.099 495.736 271.099C394.141 271.099 359.222 295.664 303.455 312.542C266.142 298.833 227.494 285.613 152.95 285.613C100.858 285.613 66.3125 292.074 37.4859 300.639C44.7172 191.917 83.9281 119.789 128.639 37.5579C135.3 25.3407 142.1 12.8454 148.911 9.76563e-05H107.767C52.4656 102.416 0 188.283 0 337.35C0 487.055 109.275 611.206 252.392 634.475L252.416 634.631C252.909 634.631 253.381 634.689 253.877 634.724C254.52 634.827 255.187 634.941 255.855 635.039C265.634 637.214 271.709 645.981 271.709 656.469V727.895C271.709 739.574 263.841 752.339 252.416 752.339L202.241 762.717C192.564 762.717 184.681 770.397 184.681 779.859V782.856C184.681 792.325 192.563 800 202.241 800H298.645H303.513H399.883C409.594 800 417.452 792.325 417.452 782.856V779.859C417.452 770.397 409.594 762.717 399.883 762.717L349.706 752.339C338.303 752.339 330.434 739.574 330.434 727.895V656.469C330.434 645.981 336.498 637.213 346.289 635.038Z" fill="white"/>
<path d="M417.452 782.856V779.859C417.452 770.397 409.594 762.717 399.883 762.717L349.706 752.339C338.303 752.339 330.435 739.573 330.435 727.895V656.469C330.435 645.981 336.499 637.214 346.289 635.039C346.958 634.941 347.613 634.827 348.269 634.723C348.752 634.689 349.247 634.631 349.708 634.631L349.753 634.475C492.861 611.205 602.15 487.053 602.15 337.35C602.15 188.283 549.65 102.417 494.4 0H453.235C460.035 12.8453 466.856 25.3406 473.485 37.5594C514.675 113.266 551.16 180.412 562.33 275.433C543.541 272.734 521.842 271.1 495.736 271.1C394.153 271.1 359.235 295.653 303.513 312.525V800H399.883C409.594 800 417.452 792.325 417.452 782.856Z" fill="#E6EDEF"/>
<path d="M37.4861 300.641C37.4502 301.022 37.4174 301.406 37.3877 301.797C74.1939 315.281 112.772 328.105 186.189 328.105C239.367 328.105 274.264 321.374 303.453 312.544C266.141 298.835 227.492 285.614 152.949 285.614C100.86 285.614 66.3143 292.075 37.4861 300.641Z" fill="#784420"/>
<path opacity="0.37" d="M562.33 275.431C551.158 180.411 514.673 113.266 473.484 37.5579C466.858 25.3392 460.034 12.8438 453.234 -0.00146484H148.911C142.1 12.8438 135.3 25.3392 128.638 37.5579C83.9281 119.789 44.7156 191.917 37.4844 300.639C66.3125 292.074 100.858 285.613 152.948 285.613C227.492 285.613 266.141 298.833 303.453 312.542C359.22 295.664 394.139 271.099 495.734 271.099C521.842 271.1 543.541 272.735 562.33 275.431Z" fill="white"/>
<path d="M335.589 357.161C337.73 371.411 327.88 384.666 313.625 386.787L189.836 405.169C175.603 407.286 162.327 397.459 160.231 383.222L140.869 252.972C138.763 238.723 148.6 225.462 162.831 223.351L286.631 204.953C300.875 202.831 314.142 212.662 316.247 226.912L335.589 357.161Z" fill="#F5F6F6"/>
<path d="M495.736 271.1C340.975 271.1 340.975 328.105 186.191 328.105C112.774 328.105 74.1957 315.281 37.3895 301.797C36.6582 313.222 36.2676 325.061 36.2676 337.35C36.2676 483.355 155.057 602.139 301.05 602.139C447.091 602.139 565.863 483.355 565.863 337.35C565.863 315.328 564.597 294.808 562.33 275.433C543.541 272.734 521.843 271.1 495.736 271.1Z" fill="#DD9427"/>
<path opacity="0.55" d="M151.88 327.056L160.233 383.221C162.328 397.458 175.605 407.285 189.838 405.167L313.627 386.786C327.881 384.664 337.731 371.41 335.591 357.16L327.756 304.411C293.033 316.889 254.824 328.102 186.192 328.102C173.81 328.105 162.453 327.73 151.88 327.056Z" fill="#C5891A"/>
<path d="M481.666 254.802C485.324 240.869 476.994 226.613 463.072 222.97L342.01 191.22C328.066 187.563 313.833 195.897 310.174 209.813L281.697 318.369C347.694 303.003 378.138 274.544 477.327 271.397L481.666 254.802Z" fill="white"/>
<path d="M295.377 369.023L416.439 400.773C430.372 404.437 444.616 396.097 448.275 382.162L477.327 271.398C378.138 274.545 347.694 303.005 281.697 318.37L276.772 337.183C273.114 351.116 281.433 365.37 295.377 369.023Z" fill="#E4E17D"/>
<path opacity="0.32" d="M178.631 6.34375H240.311L142.388 158.691L178.631 6.34375Z" fill="white"/>
<path opacity="0.55" d="M210.052 558.061C237.896 570.434 268.708 577.32 301.05 577.32C421.72 577.32 520.497 481.905 525.892 362.569L210.052 558.061Z" fill="#C5891A"/>
<path opacity="0.55" d="M210.052 558.061C237.896 570.434 268.708 577.32 301.05 577.32C421.72 577.32 520.497 481.905 525.892 362.569L210.052 558.061Z" fill="#C5891A"/>
</svg>
